<?xml version="1.0" encoding="utf-8"?>
<!-- Generator: Adobe Illustrator 22.1.0, SVG Export Plug-In . SVG Version: 6.00 Build 0)  -->
<svg version="1.1" id="Layer_1" xmlns="http://www.w3.org/2000/svg" xmlns:xlink="http://www.w3.org/1999/xlink" x="0px" y="0px"
	 viewBox="0 0 3115.1 2899.9" style="enable-background:new 0 0 3115.1 2899.9;" xml:space="preserve">
<style type="text/css">
	.st0{fill:#7F9BC6;}
</style>
<path class="st0" d="M694.2,2852.3c195.9-49.3,399.5-75.9,600.6-92.6c218.8-18.2,439.2-20.4,658-0.8c109.4,9.8,218.3,25.5,326,47.3
	c-0.1-4.3-3.7-11.8-4.7-15.2c-6.7-21.4-13.6-42.8-19.5-64.4c-3.5-13.1-6-26.1-7.1-39.6c-6.8-85.5,31.7-177,92.2-236.6
	c54-53.1,113.5-101.4,170.2-151.6c71.4-63.2,142.7-126.4,214.1-189.6c67.9-60.1,138.9-117.8,203.8-181.2c-50-21.7-88-48.2-109-101.9
	c-21.9-55.9-20-119-2.7-175.8c19.7-64.5,42.2-128.3,63.4-192.3c17.1-51.9,40.6-105,51.6-158.5c-48.6,17.4-100.5,27.8-150.3,41.3
	c-49.2,13.3-98.7,30.4-149.1,38.6c-59.8,9.7-124.8-0.2-175.7-34.2c-41.1-27.4-61-65.2-76.7-110.1c-12.7,19-34.5,35.1-50.5,51.2
	c-36.2,36.5-72.4,73-108.6,109.4c-45.1,45.4-99.6,121.9-169.7,128.1c-81.1,7.1-109.5-75.7-101.9-142.1
	c11.5-100.4,27.1-200.5,40.8-300.6c7.9-58.3,16-116.6,24-174.9c8.1-58.8,10.9-121.9,25.2-179.4c-36,8.7-65.4,30.4-103.1,36.2
	c-65.2,9.9-133.1-10.5-183-53.5c-31.4-27-50.4-60.6-67.8-97.1c-33.1-69.4-66.1-138.8-99.1-208.2c-25.3-53.1-52.2-105.7-74.8-160
	c-40.7,69.8-73.6,145.1-109.7,217.4c-30.4,60.8-57.6,125-92.5,183.5c-36.1,60.6-101.4,100.8-171.8,105.7
	c-64.8,4.5-120.5-26.7-176.7-54.4c16.7,183.8,42.6,367.1,64.2,550.4c5.4,46,12.8,92.3,16.3,138.6c2.3,30.1-0.5,68.3-24.1,90.2
	c-56.6,52.3-133.9-49.7-167.4-84.7c-75.6-79.1-151.4-158.2-226.1-238.2c-23.7,65-37.6,134.8-107.3,165
	c-68.2,29.5-134.8,8.3-202.1-11.1c-104.5-30.3-209-60.8-313.5-91.3c103.1,24.4,206.2,48.7,309.3,73.4
	c70.4,16.8,147.9,41.2,213.4-4.5c28.3-19.7,37.6-46.1,47.4-77.2c12.5-39.8,25-79.6,37.6-119.4c67.5,65.9,135.1,131.6,202.8,197.2
	c34,32.9,67.9,65.8,101.8,98.7c12.8,12.4,47.1,52.4,64.5,27.8c7.4-10.5,4.4-27,2.9-38.8c-2.8-21.7-6.6-43.2-9.9-64.8
	c-7.1-46.3-14.2-92.6-21.3-138.9c-14.9-97.1-29.7-194.3-44.4-291.5c-16-105.7-31.4-211.4-46.6-317.2C928,590.2,998,622,1069.2,650.8
	c52.1,21.1,111.8,7.5,147.1-37.4c13.7-17.3,21.7-38.4,31-58.2c16.4-34.7,32.7-69.5,49.1-104.2c32.3-68.5,64.6-137,96.9-205.4
	c38.8-82,78.2-163.7,117.4-245.6c71,144.4,142.3,288.6,213.7,432.8c25.4,51.3,48.8,104.3,76.5,154.5c27.8,50.4,88.6,72.9,141.9,50.6
	c82.1-34.3,162.7-72.5,244-108.6c-37,278.3-73.4,556.6-110.7,834.8c-0.1-0.1,326.1-328.5,356.9-359.5
	c13.4,40.5,26.9,81.1,40.3,121.6c10,30.1,17.7,62.9,30.5,92c19.3,44,80.4,47.5,121.2,38.5c163.3-35.9,324.9-84.1,486.7-126.3
	c-59.4,173.3-119.3,346.5-179.6,519.5c-16.4,47.1-43.8,130.2,7,167.2c15,10.9,35.1,17.3,51.7,25.3c41.4,20,82.8,40,124.2,59.9
	c-162.6,138.7-326.1,276.3-489.7,413.8c-73.7,62-148.8,122.7-221.4,185.9c-51.9,45.2-91.3,122.5-80.8,192.9
	c10.4,69.4,42.3,135.4,52.6,204.7c-203.9-51.6-408.7-89.2-618.8-104.3c-243.8-17.4-489.3-11.6-732.5,11.9
	C914.1,2818.1,803.2,2831.2,694.2,2852.3z"/>
</svg>
