<?xml version="1.0" encoding="utf-8"?>
<!-- Generator: Adobe Illustrator 23.0.1, SVG Export Plug-In . SVG Version: 6.00 Build 0)  -->
<svg version="1.1" xmlns="http://www.w3.org/2000/svg" xmlns:xlink="http://www.w3.org/1999/xlink" x="0px" y="0px"
	 viewBox="0 0 251.71 234.32" style="enable-background:new 0 0 251.71 234.32;" xml:space="preserve">
<style type="text/css">
	.st0{fill:#6C8235;}
</style>
<g id="trillium">
	<g>
		<path class="st0" d="M-169.33,67.56c0,0,6-16,24-29c0,0,12-25-24-53c0,0-2.83-0.94-1.16,1.74c0.11,0.18,0.18,0.37,0.2,0.58
			c0.14,1.35,0.41,6.77-3.04,13.68c-4,8-18,25-15,39S-169.33,67.56-169.33,67.56z"/>
		<path class="st0" d="M-190.33,55.56c0,0-9-22-45-24s-49,7-49,7s7,2,13,10s20,39,20,39s7,17,21,25s20,8,20,8s-19-12-29-30
			s-16-37-26-48c0,0,12.8-5.88,32-3C-213.33,42.56-205.33,46.56-190.33,55.56z"/>
		<path class="st0" d="M-158.33,64.56c0,0,11-28,53-30s47-12,49-15c0,0,4,18-4,40s-20,39-56,51c0,0,53-33,52-74c0,0-14,5-40,7
			S-140.33,51.56-158.33,64.56z"/>
		<path class="st0" d="M-159.33,109.56c-13,0-23,9-23,9c19-7,39-2,39-2c-16-11-20-32-20-32s-5,14-10,19c0,0,7-3,9-4
			c0.21,1.46,0.71,3.64,2,6C-161.35,107.34-160.23,108.65-159.33,109.56z"/>
		<path class="st0" d="M-189.33,128.56c0,0-15,3-34-4c0,0-7,0-13,2c-7.65,2.55-17,6-25,46c0,0,3-6,14-6s37,2,44-7
			S-191.33,143.56-189.33,128.56z"/>
		<path class="st0" d="M-191.33,152.56c0,0,5,53,32,69c0,0,7-20,18-34s16-44,14-55c0,0,6,0,6,28c0,0-3,17-14,35s-19,31-15,46
			c0,0-29-18-41-48C-191.33,193.56-199.33,172.56-191.33,152.56z"/>
		<path class="st0" d="M-124.33,119.56c0,0,26.56-6.32,38,2c11,8,13,15,15,21c0,0,5,15,17,20c0,0-5,4-27,6c0,0-20,2-31-13
			C-112.33,155.56-113.33,133.56-124.33,119.56z"/>
	</g>
</g>
<g id="mapleLeaf">
	<g>
		<path class="st0" d="M56.09,230.47c15.83-3.98,32.28-6.13,48.53-7.48c17.68-1.47,35.49-1.64,53.17-0.06
			c8.84,0.79,17.64,2.06,26.34,3.82c-0.01-0.35-0.3-0.96-0.38-1.23c-0.54-1.73-1.1-3.46-1.57-5.21c-0.29-1.05-0.49-2.11-0.58-3.2
			c-0.55-6.91,2.56-14.3,7.45-19.12c4.36-4.29,9.17-8.2,13.76-12.25c5.77-5.11,11.53-10.22,17.3-15.32
			c5.48-4.86,11.23-9.52,16.47-14.64c-4.04-1.76-7.11-3.9-8.81-8.23c-1.77-4.52-1.62-9.62-0.22-14.21
			c1.59-5.21,3.41-10.37,5.12-15.54c1.38-4.19,3.28-8.48,4.17-12.81c-3.92,1.41-8.12,2.25-12.14,3.33
			c-3.97,1.07-7.98,2.46-12.05,3.12c-4.83,0.79-10.08-0.01-14.2-2.76c-3.32-2.22-4.93-5.27-6.2-8.9c-1.03,1.53-2.79,2.84-4.08,4.14
			c-2.92,2.95-5.85,5.9-8.78,8.84c-3.64,3.67-8.05,9.85-13.71,10.35c-6.56,0.58-8.85-6.12-8.23-11.49
			c0.93-8.11,2.19-16.2,3.29-24.29c0.64-4.71,1.29-9.42,1.94-14.13c0.65-4.75,0.88-9.85,2.04-14.5c-2.91,0.7-5.28,2.46-8.33,2.92
			c-5.27,0.8-10.75-0.85-14.79-4.32c-2.53-2.18-4.07-4.9-5.48-7.85c-2.67-5.61-5.34-11.22-8.01-16.82
			c-2.04-4.29-4.22-8.54-6.05-12.92c-3.29,5.64-5.95,11.73-8.87,17.57c-2.46,4.92-4.66,10.1-7.47,14.83
			c-2.91,4.9-8.2,8.14-13.88,8.54c-5.24,0.37-9.74-2.16-14.28-4.4c1.35,14.85,3.44,29.66,5.18,44.47c0.44,3.72,1.04,7.46,1.32,11.2
			c0.18,2.43-0.04,5.52-1.95,7.28c-4.57,4.22-10.82-4.02-13.52-6.85c-6.11-6.4-12.23-12.78-18.27-19.24
			c-1.91,5.25-3.04,10.89-8.67,13.33c-5.51,2.38-10.89,0.67-16.33-0.9C16.88,103.1,8.44,100.64,0,98.17
			c8.33,1.97,16.66,3.94,24.99,5.93c5.69,1.36,11.95,3.33,17.25-0.36c2.29-1.59,3.04-3.73,3.83-6.24c1.01-3.22,2.02-6.43,3.03-9.65
			c5.45,5.32,10.92,10.63,16.39,15.93c2.74,2.66,5.49,5.32,8.23,7.98c1.04,1.01,3.8,4.23,5.21,2.25c0.6-0.85,0.36-2.18,0.23-3.13
			c-0.22-1.75-0.54-3.49-0.8-5.24c-0.57-3.74-1.15-7.48-1.72-11.23c-1.2-7.85-2.4-15.7-3.59-23.55c-1.29-8.54-2.54-17.08-3.77-25.63
			c5.7,2.46,11.36,5.03,17.11,7.36c4.21,1.7,9.03,0.6,11.89-3.02c1.1-1.4,1.75-3.1,2.5-4.71c1.32-2.81,2.65-5.61,3.97-8.42
			c2.61-5.53,5.22-11.07,7.83-16.6c3.13-6.63,6.32-13.23,9.48-19.84c5.74,11.67,11.5,23.32,17.27,34.97
			c2.05,4.15,3.95,8.43,6.19,12.48c2.25,4.07,7.16,5.89,11.47,4.09c6.63-2.77,13.15-5.86,19.71-8.78
			c-2.99,22.48-5.93,44.97-8.95,67.45c-0.01-0.01,26.35-26.54,28.84-29.05c1.09,3.28,2.17,6.55,3.26,9.83
			c0.81,2.43,1.43,5.08,2.46,7.43c1.56,3.56,6.5,3.84,9.8,3.11c13.2-2.9,26.25-6.79,39.33-10.2c-4.8,14.01-9.64,28-14.51,41.98
			c-1.33,3.81-3.54,10.52,0.57,13.51c1.21,0.88,2.84,1.4,4.18,2.04c3.35,1.61,6.69,3.23,10.04,4.84
			c-13.14,11.21-26.35,22.33-39.57,33.44c-5.96,5.01-12.02,9.91-17.89,15.02c-4.2,3.65-7.38,9.9-6.53,15.58
			c0.84,5.61,3.42,10.94,4.25,16.54c-16.48-4.17-33.02-7.21-50-8.43c-19.7-1.41-39.53-0.94-59.19,0.96
			C73.86,227.71,64.9,228.77,56.09,230.47z"/>
	</g>
</g>
</svg>
