<?xml version="1.0" encoding="utf-8"?>
<!-- Generator: Adobe Illustrator 22.1.0, SVG Export Plug-In . SVG Version: 6.00 Build 0)  -->
<svg version="1.1" xmlns="http://www.w3.org/2000/svg" xmlns:xlink="http://www.w3.org/1999/xlink" x="0px" y="0px"
	 viewBox="0 0 230 256.2" style="enable-background:new 0 0 230 256.2;" xml:space="preserve">
<style type="text/css">
	.st0{fill:#7F9BC6;}
	.st1{fill:#FFFFFF;stroke:#000000;stroke-miterlimit:10;}
</style>
<g id="trillium">
	<g>
		<path class="st0" d="M115,82.2c0,0,6-16,24-29c0,0,12-25-24-53c0,0-2.8-0.9-1.2,1.7c0.1,0.2,0.2,0.4,0.2,0.6
			c0.1,1.3,0.4,6.8-3,13.7c-4,8-18,25-15,39S115,82.2,115,82.2z"/>
		<path class="st0" d="M94,70.2c0,0-9-22-45-24s-49,7-49,7s7,2,13,10s20,39,20,39s7,17,21,25s20,8,20,8s-19-12-29-30s-16-37-26-48
			c0,0,12.8-5.9,32-3C71,57.2,79,61.2,94,70.2z"/>
		<path class="st0" d="M126,79.2c0,0,11-28,53-30s47-12,49-15c0,0,4,18-4,40s-20,39-56,51c0,0,53-33,52-74c0,0-14,5-40,7
			S144,66.2,126,79.2z"/>
		<path class="st0" d="M125,124.2c-13,0-23,9-23,9c19-7,39-2,39-2c-16-11-20-32-20-32s-5,14-10,19c0,0,7-3,9-4c0.2,1.5,0.7,3.6,2,6
			C123,121.9,124.1,123.3,125,124.2z"/>
		<path class="st0" d="M95,143.2c0,0-15,3-34-4c0,0-7,0-13,2c-7.6,2.5-17,6-25,46c0,0,3-6,14-6s37,2,44-7S93,158.2,95,143.2z"/>
		<path class="st0" d="M93,167.2c0,0,5,53,32,69c0,0,7-20,18-34s16-44,14-55c0,0,6,0,6,28c0,0-3,17-14,35s-19,31-15,46
			c0,0-29-18-41-48C93,208.2,85,187.2,93,167.2z"/>
		<path class="st0" d="M160,134.2c0,0,26.6-6.3,38,2c11,8,13,15,15,21c0,0,5,15,17,20c0,0-5,4-27,6c0,0-20,2-31-13
			C172,170.2,171,148.2,160,134.2z"/>
	</g>
</g>
<g id="mapleLeaf">
	<g>
		<path d="M456.6,250.4c0,0-6.5-35,4.6-54.7c0,0,53.7,23.7,68.3,26.9c0,0-8.4-24.1,7.3-28.5c15.7-4.4,66.2-26.3,76.2-36.8
			c0,0-22.3-3.2-15-13.3c7.3-10.1,18-24.9,21.5-38.6c0,0-40.7,15.7-41.8,0.8S571.2,91,571.2,91s-54.5,50.3-42.2,14.5
			c0,0,28.8-46.2,30.7-60.3c0,0-23.4,11.3-29.9-0.4s-10.4-23.7-21.9-48.6c0,0-24.2,48.6-40.7,36.6c-16.5-12.1-16.1-11.3-16.1-11.3
			s8.4,87.2-3.5,71.6c0,0-16.5-33.4-28.4-42.6c0,0-6.1,21.7-31.8,14.1s-29.2-9.2-29.2-9.2s12.7,40.2,0,44.6c-12.7,4.4-15.7,4-15.7,4
			s56.8,49,48.3,67.1s-8.4,18.1-8.4,18.1s54.5-4.4,67.9,3.6c0,0-10.7,31.8-9.6,53.5C440.7,246.2,451.8,246.2,456.6,250.4z"/>
		<path class="st1" d="M445,259.7c0,0-6.4-34.5,4.5-53.9c0,0,53,23.4,67.3,26.6c0,0-8.3-23.8,7.2-28.1c15.5-4.4,65.2-26,75.1-36.3
			c0,0-21.9-3.2-14.8-13.1s17.8-24.6,21.2-38c0,0-40.1,15.5-41.2,0.8s-6.4-15.1-6.4-15.1s-53.7,49.5-41.6,14.3
			c0,0,28.4-45.6,30.3-59.4c0,0-23.1,11.1-29.5-0.4c-6.4-11.5-10.2-23.4-21.6-48c0,0-23.8,48-40.1,36.1
			C439.2,33.2,439.6,34,439.6,34s8.3,86-3.4,70.5c0,0-16.3-32.9-28-42c0,0-6.1,21.4-31.4,13.9c-25.3-7.5-28.7-9.1-28.7-9.1
			s12.5,39.6,0,44s-15.5,4-15.5,4s56,48.3,47.7,66.2s-8.3,17.8-8.3,17.8s53.7-4.4,67,3.6c0,0-10.6,31.3-9.5,52.7
			C429.3,255.5,440.3,255.5,445,259.7z"/>
	</g>
</g>
</svg>
